<svg xmlns="http://www.w3.org/2000/svg" width="94.431" height="54.834" viewBox="0 0 94.431 54.834">
  <path data-name="cm-logo" d="M35.8-15c0-1.9.1-2.8,0-5,0-1.6-.9-1-2,0-1.4,1.1-10,12.6-16,11.9-6.3-.5-7-8.2-6.3-14.1,2.5-21.2,5.1-18,5.3-18.4v11.3a4.46,4.46,0,0,0,4.5,4.4c2.3-.1,5.7-.7,7.1-2.3,1.3-1.3.3-3.7-1-5.1V-44.6a10.452,10.452,0,0,0-9.3-4.8c-5.2.1-12.4,3.1-12.9,3.5C1.7-35.4,1.3-33.9.3-23.4-1.1-10-.1-.1,13.3,1.8,19.2,2.7,30-5.6,33.8-11,34.7-11.8,35.9-13.7,35.8-15Zm58.3,1.6a31.88,31.88,0,0,0,0-6.2c0-1.6-1-1.3-1.7-.4-.3.6-2.9,6.2-6.4,7.1-6.7,1.8-4.6-10.5-3.7-17.5a39.889,39.889,0,0,1,4.4-14c0-.1-3-6.5-5.5-7.5-1.2-.5-9.2,1.2-9.3,1.3-.1.3-1.7,8.3-3,13.3-1.3,4.7-3.4,11.9-4.9,11.4-1.8-.5,1.4-14.7,1.3-15-.7-1.6-3.9-4.3-6.3-4.4-2.2,0-6.8,3.2-6.8,3.2-.1,3.8-.9,6-2,9.6-1.9,6-4.2,7.2-4.4,7.6a107.159,107.159,0,0,1,.4-10.9,37.571,37.571,0,0,1,1.6-7.4s-2.2-3.5-4.4-4.4c-1.3-.6-2.4.4-3.9.1-1-.1-1.5-.9-2.5-.8-2.3,0-2.2,5.1-2.2,5.4L33.5-1.7c-.2.5,8.1,7.7,11.9,2.9.8-1-.2-2.9-.4-3.3.1-.3,1.3-5.2,2.2-8.5,2.9-11,6.5-12.7,6.5-12.8A102.015,102.015,0,0,0,52.1-12c0,3,.3,7.5.3,7.7A36.634,36.634,0,0,0,60,1.3c1.7.9,3.7-.7,3.8-.7A111.312,111.312,0,0,1,65.5-12c1.8-8.8,4.9-11.8,5-12.1,0,0,.2,6.6.1,10.8-.2,5.4,2.9,10.8,8.6,10.9,6.9.3,12.8-7.9,13.2-8.6C93-11.7,94.1-12.5,94.1-13.4Z" transform="translate(0.172 51.992)"/>
</svg>
